PathFileType	4	(X/Y/Z)	C:/Users/CLatella/Desktop/xsens/7Novembre/Claudia/Claudia mvnx and c3d/Claudia-022.trc	
DataRate	CameraRate	NumFrames	NumMarkers	Units	OrigDataRate	OrigDataStartFrame	OrigNumFrames	
240.00	240.00	4	64	mm	240.00	279	1113	
Frame#	Time	pHipOrigin			pRightASI			pLeftASI			pRightCSI			pLeftCSI			pRightIschialTub			pLeftIschialTub			pSacrum			pL5SpinalProcess			pL3SpinalProcess			pT12SpinalProcess			pPX			pIJ			pT4SpinalProcess			pT8SpinalProcess			pC7SpinalProcess			pTopOfHead			pRightAuricularis			pLeftAuricularis			pBackOfHead			pRightAcromion			pLeftAcromion			pRightArmLatEpicondyle			pRightArmMedEpicondyle			pLeftArmLatEpicondyle			pLeftArmMedEpicondyle			pRightUlnarStyloid			pRightRadialStyloid			pRightOlecranon			pLeftUlnarStyloid			pLeftRadialStyloid			pLeftOlecranon			pRightTopOfHand			pRightPinky			pRightBallHand			pLeftTopOfHand			pLeftPinky			pLeftBallHand			pRightGreaterTrochanter			pRightKneeLatEpicondyle			pRightKneeMedEpicondyle			pRightPatella			pLeftGreaterTrochanter			pLeftKneeLatEpicondyle			pLeftKneeMedEpicondyle			pLeftPatella			pRightLatMalleolus			pRightMedMalleolus			pRightTibialTub			pLeftLatMalleolus			pLeftMedMalleolus			pLeftTibialTub			pRightHeelFoot			pRightFirstMetatarsal			pRightFifthMetatarsal			pRightPivotFoot			pRightHeelCenter			pRightToe			pLeftHeelFoot			pLeftFirstMetatarsal			pLeftFifthMetatarsal			pLeftPivotFoot			pLeftHeelCenter			pLeftToe			
		X1	Y1	Z1	X2	Y2	Z2	X3	Y3	Z3	X4	Y4	Z4	X5	Y5	Z5	X6	Y6	Z6	X7	Y7	Z7	X8	Y8	Z8	X9	Y9	Z9	X10	Y10	Z10	X11	Y11	Z11	X12	Y12	Z12	X13	Y13	Z13	X14	Y14	Z14	X15	Y15	Z15	X16	Y16	Z16	X17	Y17	Z17	X18	Y18	Z18	X19	Y19	Z19	X20	Y20	Z20	X21	Y21	Z21	X22	Y22	Z22	X23	Y23	Z23	X24	Y24	Z24	X25	Y25	Z25	X26	Y26	Z26	X27	Y27	Z27	X28	Y28	Z28	X29	Y29	Z29	X30	Y30	Z30	X31	Y31	Z31	X32	Y32	Z32	X33	Y33	Z33	X34	Y34	Z34	X35	Y35	Z35	X36	Y36	Z36	X37	Y37	Z37	X38	Y38	Z38	X39	Y39	Z39	X40	Y40	Z40	X41	Y41	Z41	X42	Y42	Z42	X43	Y43	Z43	X44	Y44	Z44	X45	Y45	Z45	X46	Y46	Z46	X47	Y47	Z47	X48	Y48	Z48	X49	Y49	Z49	X50	Y50	Z50	X51	Y51	Z51	X52	Y52	Z52	X53	Y53	Z53	X54	Y54	Z54	X55	Y55	Z55	X56	Y56	Z56	X57	Y57	Z57	X58	Y58	Z58	X59	Y59	Z59	X60	Y60	Z60	X61	Y61	Z61	X62	Y62	Z62	X63	Y63	Z63	X64	Y64	Z64	

279	1.158	35.21308	209.95868	936.02398	130.45207	96.18927	983.48510	117.78170	335.81774	975.98846	124.85599	118.36242	1063.41405	114.35014	318.18480	1057.18445	-29.61700	155.74003	914.37876	-34.84353	255.62482	911.26396	-18.84718	208.58606	984.38258	42.18179	213.60141	1039.60430	93.76078	215.81873	1140.65055	143.70317	216.50504	1227.44262	319.55743	221.15084	1222.84961	384.33472	219.19749	1324.63496	248.18098	214.65728	1383.86896	197.65786	215.97711	1311.33106	279.80412	215.39638	1428.69041	527.93231	221.09805	1551.01233	432.74611	148.50736	1509.88640	437.18074	288.35663	1493.89005	396.16040	224.10727	1540.92882	294.21668	25.76310	1398.49269	271.51559	413.05424	1369.56200	231.18156	-12.08965	1063.41405	222.73464	52.10692	1058.34590	181.55592	421.23719	1040.44899	190.31960	356.93503	1036.48950	247.07232	8.49971	816.50011	283.02451	42.92090	821.19871	209.32516	0.31676	1058.76824	183.98441	370.81965	793.95740	233.87401	368.02161	796.96661	160.64980	392.99281	1037.17581	355.98476	-36.32174	672.63855	288.67339	-37.27202	728.86335	263.22705	6.59915	782.02613	267.92565	390.56432	623.48806	253.24913	419.28384	705.00080	216.34666	395.47409	763.97084	53.16278	57.70300	915.11786	29.61700	40.17565	525.97896	15.62680	113.98059	517.58484	63.72143	87.42559	521.59712	16.41869	361.47525	908.51871	-41.91783	355.29844	522.70578	-29.51142	280.96557	516.10662	6.22960	322.88340	515.73707	16.20752	35.47705	115.72276	18.53042	95.50295	113.39986	85.94738	77.39488	489.34046	-60.55384	376.78529	115.77556	-53.37396	317.28732	110.81299	26.66058	326.36775	484.64186	-29.82818	61.97925	12.19524	136.89285	83.46610	1.37262	129.55459	6.17681	7.44385	155.26489	43.66000	3.22039	11.66730	57.43904	4.75139	221.73157	37.21923	1.10866	-104.31942	340.72751	11.08658	63.45746	349.96633	-0.15838	42.18179	424.66875	5.12094	74.33287	392.41208	1.16145	-64.30216	352.71158	3.43156	138.42385	410.83692	-1.16145 
280	1.162	35.26588	209.95868	936.02398	130.61045	96.24206	983.32672	117.94008	335.87053	975.77729	125.22554	118.46801	1063.20288	114.66690	318.23760	1056.97328	-29.61700	155.74003	914.53714	-34.89633	255.62482	911.42234	-18.68880	208.63885	984.48817	42.44576	213.65421	1039.55151	94.23592	215.87152	1140.49217	144.44228	216.55783	1227.17865	320.24374	221.30922	1222.21609	385.28500	219.30308	1323.79026	249.28964	214.71007	1383.39382	198.60813	216.02990	1310.96151	281.01837	215.44918	1428.10969	529.35773	221.09805	1549.95646	434.06594	148.50736	1508.98892	438.50058	288.40942	1492.99257	397.58582	224.16006	1540.13692	295.37813	25.86868	1398.01755	272.46586	413.10703	1369.08686	231.02318	-12.61758	1063.20288	222.57626	51.63178	1058.08193	181.39754	421.76512	1040.29061	190.10842	357.46297	1036.22554	247.07232	8.44692	816.28894	283.02451	42.86810	821.09312	209.16678	-0.15838	1058.50428	183.82603	370.97803	793.79902	233.66284	368.17999	796.80823	160.49142	393.52074	1036.96464	356.09034	-36.16336	672.42738	288.77897	-37.16643	728.59938	263.22705	6.59915	781.81496	268.08403	390.40594	623.38247	253.24913	419.28384	704.84243	216.24107	395.52689	763.75967	53.16278	57.75579	915.17066	29.56421	40.12286	525.97896	15.62680	113.92779	517.63763	63.72143	87.37280	521.59712	16.47149	361.52804	908.51871	-41.91783	355.29844	522.70578	-29.56421	281.01837	516.10662	6.17681	322.88340	515.73707	16.20752	35.42426	115.72276	18.53042	95.45016	113.39986	85.89459	77.34208	489.39325	-60.60663	376.78529	115.77556	-53.37396	317.28732	110.81299	26.60779	326.36775	484.64186	-29.88097	61.97925	12.19524	136.89285	83.36051	1.42542	129.50180	6.12401	7.44385	155.26489	43.60721	3.27318	11.66730	57.43904	4.80418	221.73157	37.11364	1.16145	-104.31942	340.78031	11.08658	63.51026	349.91353	-0.15838	42.18179	424.61596	5.12094	74.33287	392.41208	1.16145	-64.30216	352.71158	3.43156	138.47664	410.78413	-1.16145 
281	1.167	35.26588	210.01147	936.02398	130.76883	96.29485	983.11555	118.04566	335.92333	975.56611	125.54230	118.52080	1063.04450	114.98366	318.29039	1056.76210	-29.61700	155.74003	914.69552	-34.89633	255.67762	911.58072	-18.53042	208.69164	984.64655	42.76252	213.70700	1039.55151	94.76385	215.92431	1140.33379	145.18138	216.66342	1226.91469	320.98284	221.36202	1221.52978	386.23528	219.40867	1322.94557	250.39829	214.76286	1382.86589	199.50562	216.08269	1310.59196	282.23261	215.50197	1427.52896	530.83594	221.09805	1548.84781	435.43857	148.56015	1508.09143	439.87320	288.40942	1492.09508	399.01124	224.21285	1539.29223	296.53958	25.97427	1397.54241	273.46894	413.15982	1368.61172	230.86480	-13.09272	1063.04450	222.41788	51.10385	1057.81797	181.18637	422.29305	1040.18503	189.95004	358.04369	1035.96157	247.01953	8.44692	816.07776	283.07730	42.81531	820.98753	208.95561	-0.63352	1058.24031	183.66765	371.08362	793.64064	233.50446	368.28558	796.64985	160.28025	394.04868	1036.75347	356.24872	-36.00498	672.26900	288.88456	-37.11364	728.38821	263.27984	6.59915	781.65658	268.18961	390.19477	623.32968	253.24913	419.23105	704.68405	216.13549	395.57968	763.60129	53.21558	57.75579	915.17066	29.56421	40.07006	526.03175	15.57400	113.92779	517.63763	63.72143	87.32000	521.59712	16.52428	361.52804	908.51871	-41.97062	355.29844	522.70578	-29.61700	281.01837	516.10662	6.12401	322.88340	515.73707	16.15473	35.37146	115.77556	18.47763	95.39737	113.45265	85.89459	77.28929	489.39325	-60.60663	376.78529	115.77556	-53.37396	317.28732	110.81299	26.60779	326.36775	484.64186	-29.88097	61.92646	12.24803	136.84005	83.36051	1.42542	129.50180	6.07122	7.49664	155.21210	43.55442	3.32597	11.66730	57.38624	4.80418	221.67878	37.06085	1.21424	-104.31942	340.78031	11.08658	63.51026	349.96633	-0.15838	42.18179	424.66875	5.12094	74.33287	392.41208	1.16145	-64.30216	352.71158	3.43156	138.47664	410.83692	-1.16145 
282	1.171	35.31867	210.06427	936.02398	130.87442	96.34765	982.90437	118.15125	335.97612	975.35494	125.91186	118.57360	1062.83332	115.30042	318.39598	1056.49814	-29.61700	155.79282	914.85390	-34.94912	255.67762	911.73910	-18.42484	208.74443	984.75214	43.02648	213.75979	1039.55151	95.29178	215.97711	1140.22820	145.86770	216.71621	1226.65072	321.66916	221.46760	1220.84346	387.18556	219.46146	1322.10088	251.45416	214.76286	1382.33796	200.45590	216.13549	1310.16961	283.44686	215.50197	1426.94824	532.26135	221.09805	1547.73915	436.81119	148.56015	1507.14115	441.24582	288.46221	1491.14481	400.43666	224.21285	1538.39475	297.70103	26.02706	1397.06727	274.52480	413.21262	1368.08378	230.70642	-13.62065	1062.88612	222.31230	50.57592	1057.55400	180.97520	422.82099	1040.02665	189.73887	358.57162	1035.69760	247.01953	8.39412	815.86659	283.07730	42.76252	820.88195	208.79723	-1.16145	1057.97635	183.50927	371.18921	793.48226	233.34608	368.33837	796.49147	160.12187	394.57661	1036.54229	356.40710	-35.84660	672.11062	288.99015	-37.06085	728.17703	263.33264	6.59915	781.44540	268.34799	389.98360	623.22409	253.24913	419.17825	704.52567	216.02990	395.63247	763.39012	53.21558	57.80859	915.22345	29.51142	40.01727	526.03175	15.57400	113.87500	517.63763	63.66864	87.26721	521.64991	16.52428	361.58084	908.51871	-42.02341	355.29844	522.70578	-29.66980	281.01837	516.10662	6.07122	322.88340	515.73707	16.10194	35.31867	115.77556	18.42484	95.34457	113.45265	85.84179	77.23650	489.39325	-60.60663	376.78529	115.77556	-53.37396	317.28732	110.81299	26.55500	326.42055	484.64186	-29.93376	61.87367	12.24803	136.84005	83.30772	1.47821	129.44900	6.01843	7.49664	155.21210	43.55442	3.32597	11.61451	57.33345	4.80418	221.67878	37.06085	1.21424	-104.31942	340.78031	11.08658	63.51026	349.96633	-0.15838	42.18179	424.66875	5.12094	74.33287	392.41208	1.21424	-64.30216	352.71158	3.43156	138.47664	410.83692	-1.16145 
